<svg width="31" height="20" viewBox="0 0 31 20" fill="none" xmlns="http://www.w3.org/2000/svg">
<path fill-rule="evenodd" clip-rule="evenodd" d="M29.2841 6.28911C29.2887 6.37084 29.2828 6.45385 29.2624 6.53728L27.4367 13.8696C27.3445 14.2386 27.0148 14.4988 26.6358 14.5009L15.6818 14.5564C15.6805 14.5564 15.6791 14.5564 15.6776 14.5564H4.72364C4.34252 14.5564 4.01048 14.2953 3.91849 13.9242L2.0928 6.56393C2.07172 6.47878 2.0657 6.39319 2.07101 6.30933C1.36473 6.08614 0.851074 5.42252 0.851074 4.64065C0.851074 3.67515 1.63277 2.89025 2.59372 2.89025C3.55467 2.89025 4.33637 3.67515 4.33637 4.64065C4.33637 5.18382 4.08839 5.66982 3.70013 5.9915L5.98585 8.30358C6.56359 8.88804 7.36516 9.2235 8.18523 9.2235C9.15498 9.2235 10.0795 8.76075 10.6617 7.98617L14.4182 2.98831C14.1027 2.67178 13.9072 2.23439 13.9072 1.75186C13.9072 0.786768 14.6889 0.00146484 15.6499 0.00146484C16.6108 0.00146484 17.3925 0.786768 17.3925 1.75186C17.3925 2.21978 17.2075 2.64425 16.9085 2.95863C16.9095 2.95993 16.9107 2.96123 16.9117 2.96251L20.6408 7.97415C21.2229 8.75602 22.1507 9.2235 23.1232 9.2235C23.9509 9.2235 24.7292 8.89966 25.3143 8.31218L27.6144 6.00225C27.218 5.681 26.9634 5.19072 26.9634 4.64065C26.9634 3.67515 27.7452 2.89025 28.7061 2.89025C29.667 2.89025 30.4488 3.67515 30.4488 4.64065C30.4488 5.40145 29.9613 6.04913 29.2841 6.28911ZM27.2585 17.1669C27.2585 16.7072 26.8869 16.3339 26.4287 16.3339H4.9634C4.5051 16.3339 4.13351 16.7072 4.13351 17.1669V19.1668C4.13351 19.6274 4.5051 20.0003 4.9634 20.0003H26.4287C26.8869 20.0003 27.2585 19.6274 27.2585 19.1668V17.1669Z" fill="#02073E"/>
</svg>
